<?xml version="1.0" encoding="utf-8"?>
<!-- Generator: Adobe Illustrator 26.2.1, SVG Export Plug-In . SVG Version: 6.00 Build 0)  -->
<svg version="1.1" id="Layer_1" xmlns="http://www.w3.org/2000/svg" xmlns:xlink="http://www.w3.org/1999/xlink" x="0px" y="0px"
	 viewBox="0 0 64 64" style="enable-background:new 0 0 64 64;" xml:space="preserve">
<style type="text/css">
	.st0{fill-rule:evenodd;clip-rule:evenodd;fill:#7686C5;}
</style>
<path class="st0" d="M46,6c3,0,5.4,2.3,5.5,5.3l0,0.2v38c0,3-2.3,5.4-5.3,5.5L46,55H27v0.5c0,1.9-1.5,3.4-3.3,3.5l-0.2,0
	c-1.9,0-3.5-1.6-3.5-3.5V55h-1.2c-3.2,0-5.8-2.6-5.8-5.8V11.5c0-3,2.3-5.4,5.3-5.5l0.2,0H46z M25,51h-3v4.5c0,0.8,0.6,1.4,1.4,1.5
	l0.1,0c0.8,0,1.5-0.7,1.5-1.5V51z M48.5,46.5H18.8c-1.5,0-2.7,1.1-2.7,2.6l0,0.2c0,1.5,1.1,2.7,2.6,2.7l0.2,0H20v-3h7v3h19
	c1.3,0,2.4-1,2.5-2.3l0-0.2V46.5z M19.5,9h-1c-1.3,0-2.4,1-2.5,2.3l0,0.2v32.7c0.8-0.4,1.6-0.7,2.5-0.7l0.2,0h0.8V9z M46,9H22.5
	v34.5h26v-32c0-1.3-1-2.4-2.3-2.5L46,9z"/>
</svg>
